<?xml version="1.0" encoding="UTF-8" ?>
<!DOCTYPE svg PUBLIC "-//W3C//DTD SVG 1.1//EN" "http://www.w3.org/Graphics/SVG/1.1/DTD/svg11.dtd">
<svg width="2363pt" height="343pt" viewBox="0 0 2363 343" version="1.1" xmlns="http://www.w3.org/2000/svg">
<g id="#ed1c24ff">
<path fill="#ed1c24" opacity="1.00" d=" M 105.90 7.32 C 125.11 4.23 144.74 4.19 164.06 6.29 C 185.75 8.80 207.77 15.16 225.01 29.05 C 240.68 41.58 251.94 59.41 256.49 78.95 C 258.37 86.67 259.32 94.60 259.63 102.54 C 238.13 103.30 216.63 104.03 195.14 104.78 C 193.04 92.82 189.12 80.48 180.30 71.71 C 171.26 62.79 158.24 59.65 145.96 58.71 C 131.36 57.79 116.16 58.69 102.64 64.72 C 95.94 67.82 89.20 72.12 85.85 78.95 C 81.91 87.07 82.73 97.44 88.40 104.56 C 93.34 111.08 100.95 114.69 108.32 117.75 C 133.17 127.77 159.86 131.67 185.32 139.75 C 201.90 145.00 218.71 150.82 232.93 161.12 C 249.01 172.69 261.17 189.86 265.77 209.22 C 270.65 229.89 270.35 252.27 262.24 272.11 C 254.57 291.39 240.60 308.27 222.41 318.46 C 204.93 328.41 184.91 332.95 165.03 334.81 C 149.56 336.18 133.96 336.26 118.49 334.75 C 100.35 332.90 82.19 328.56 66.06 319.85 C 51.34 311.98 38.80 300.20 29.79 286.17 C 18.31 268.35 12.49 247.46 10.02 226.56 C 30.93 224.50 51.84 222.37 72.76 220.34 C 75.88 237.78 82.43 255.85 96.52 267.41 C 110.19 278.76 128.68 281.99 146.00 281.37 C 161.53 280.90 178.18 277.85 190.08 267.10 C 197.16 260.88 202.73 252.49 204.04 243.01 C 205.54 233.68 203.21 223.44 196.43 216.60 C 189.87 210.14 181.12 206.56 172.54 203.64 C 151.57 197.00 130.02 192.48 108.88 186.44 C 90.90 181.02 72.83 174.58 57.39 163.64 C 41.74 151.99 29.51 135.27 24.71 116.22 C 20.77 100.48 21.06 83.57 26.23 68.13 C 31.32 52.99 40.60 39.17 53.15 29.21 C 68.24 17.13 86.98 10.44 105.90 7.32 Z" />
<path fill="#ed1c24" opacity="1.00" d=" M 443.59 5.84 C 474.77 3.00 507.23 5.97 535.92 19.23 C 564.06 32.15 587.50 54.95 601.24 82.71 C 611.09 102.36 616.32 124.06 618.41 145.87 C 620.33 166.80 619.97 188.00 616.73 208.79 C 611.98 240.10 598.90 270.76 576.33 293.37 C 555.81 314.63 528.08 328.22 499.05 333.06 C 473.53 337.30 447.12 336.84 421.85 331.16 C 394.05 324.93 368.11 310.24 349.15 288.88 C 328.76 266.48 317.10 237.25 312.83 207.51 C 309.69 186.03 309.70 164.17 311.85 142.60 C 314.23 120.18 319.86 97.80 331.00 78.06 C 343.96 55.05 362.77 34.91 386.05 22.18 C 403.79 12.71 423.66 7.80 443.59 5.84 M 453.49 60.80 C 434.07 62.72 415.37 71.71 402.24 86.22 C 386.65 102.93 380.02 125.89 377.73 148.16 C 375.63 170.94 376.22 194.33 382.50 216.46 C 387.18 233.01 396.07 248.56 409.12 259.92 C 421.49 271.12 437.45 278.13 454.02 279.91 C 472.40 281.96 491.73 279.19 507.86 269.78 C 522.57 261.24 534.58 248.08 541.62 232.57 C 550.60 213.04 553.16 191.23 553.28 169.93 C 553.27 149.06 551.02 127.69 542.59 108.38 C 535.07 90.93 521.17 76.25 503.95 68.16 C 488.31 60.80 470.53 59.04 453.49 60.80 Z" />
<path fill="#ed1c24" opacity="1.00" d=" M 669.78 10.66 C 699.51 10.65 729.23 10.66 758.95 10.66 C 781.32 10.66 803.71 10.55 826.04 12.16 C 836.35 12.97 846.81 13.98 856.56 17.68 C 872.47 23.35 886.12 34.39 896.06 47.93 C 907.18 62.92 912.29 81.59 913.34 100.03 C 914.33 118.55 912.59 137.71 904.79 154.74 C 898.32 168.36 888.85 180.76 876.51 189.54 C 868.84 194.96 860.50 199.47 851.61 202.51 C 842.45 205.71 832.73 206.73 823.15 207.74 C 793.61 210.48 763.92 209.38 734.31 209.60 C 734.27 249.75 734.31 289.90 734.29 330.05 C 712.79 330.06 691.29 330.06 669.78 330.05 C 669.78 223.59 669.78 117.12 669.78 10.66 M 734.30 155.64 C 755.22 155.41 776.17 156.25 797.05 154.71 C 806.88 153.82 817.13 152.87 825.85 147.84 C 836.89 141.85 844.69 130.50 846.66 118.13 C 848.59 105.84 846.44 92.33 838.38 82.52 C 830.56 72.68 818.39 66.98 805.98 66.04 C 782.15 63.91 758.20 64.87 734.31 64.63 C 734.28 94.96 734.30 125.30 734.30 155.64 Z" />
</g>
<g id="#fff">
<path fill="#fff" opacity="1.00" d=" M 967.39 12.88 C 981.51 12.83 995.64 12.86 1009.77 12.87 C 1009.77 56.72 1009.76 100.58 1009.77 144.44 C 1064.80 144.46 1119.82 144.48 1174.84 144.43 C 1174.82 100.58 1174.83 56.72 1174.84 12.87 C 1188.96 12.85 1203.08 12.85 1217.21 12.87 C 1217.22 119.33 1217.23 225.79 1217.20 332.26 C 1203.08 332.27 1188.96 332.27 1174.85 332.26 C 1174.81 282.15 1174.85 232.04 1174.83 181.93 C 1119.81 181.93 1064.79 181.92 1009.78 181.94 C 1009.76 232.05 1009.77 282.15 1009.77 332.26 C 995.65 332.28 981.53 332.25 967.42 332.28 C 967.35 225.81 967.41 119.35 967.39 12.88 Z" />
<path fill="#ffff" opacity="1.00" d=" M 1323.30 109.30 C 1337.77 100.95 1354.40 96.76 1371.03 96.00 C 1390.40 95.00 1410.32 98.17 1427.56 107.37 C 1444.91 116.61 1459.31 131.26 1468.37 148.69 C 1480.77 172.52 1483.62 200.05 1482.51 226.53 C 1425.04 226.54 1367.56 226.54 1310.09 226.53 C 1311.08 243.40 1314.69 260.63 1323.92 275.03 C 1333.33 289.64 1348.63 300.59 1365.84 303.73 C 1383.13 306.98 1402.31 304.54 1416.61 293.68 C 1428.56 284.75 1435.81 271.09 1440.81 257.33 C 1454.34 259.12 1467.89 260.85 1481.41 262.71 C 1476.36 281.66 1466.68 299.74 1451.84 312.81 C 1437.32 326.00 1418.33 333.53 1399.00 335.96 C 1380.71 338.22 1361.89 337.49 1344.08 332.55 C 1327.55 327.98 1312.21 319.07 1300.32 306.69 C 1288.31 294.44 1280.03 278.86 1275.47 262.39 C 1270.17 243.44 1269.16 223.52 1270.43 203.96 C 1271.71 185.46 1275.72 166.91 1284.25 150.34 C 1292.98 133.31 1306.72 118.87 1323.30 109.30 M 1335.47 143.37 C 1320.68 155.97 1313.32 175.36 1312.31 194.42 C 1355.29 194.41 1398.26 194.44 1441.24 194.41 C 1439.75 178.56 1436.20 161.86 1425.50 149.50 C 1416.32 138.56 1403.25 130.87 1389.06 128.80 C 1370.24 125.78 1349.79 130.40 1335.47 143.37 Z" />
<path fill="#ffffff" opacity="1.00" d=" M 1605.01 97.18 C 1622.74 93.05 1641.15 99.12 1656.34 108.23 C 1651.71 120.31 1647.03 132.37 1642.37 144.44 C 1631.40 138.29 1618.40 134.75 1605.87 137.23 C 1592.82 139.86 1582.00 149.98 1577.49 162.35 C 1572.37 176.64 1570.24 191.85 1569.86 206.97 C 1569.74 248.73 1569.83 290.49 1569.81 332.24 C 1556.72 332.29 1543.64 332.26 1530.55 332.26 C 1530.54 255.09 1530.52 177.92 1530.56 100.74 C 1542.30 100.74 1554.04 100.73 1565.79 100.75 C 1565.79 112.54 1565.77 124.34 1565.80 136.13 C 1571.01 126.87 1576.52 117.64 1583.79 109.82 C 1589.44 103.68 1596.92 99.24 1605.01 97.18 Z" />
<path fill="#ffff" opacity="1.00" d=" M 1757.54 96.76 C 1776.57 94.60 1796.26 96.05 1814.31 102.72 C 1832.89 109.56 1849.21 122.22 1860.75 138.28 C 1870.54 151.93 1876.47 168.06 1879.31 184.55 C 1882.34 202.19 1882.10 220.23 1880.46 238.00 C 1878.57 256.68 1874.05 275.62 1863.53 291.43 C 1853.92 306.37 1839.85 318.18 1823.88 325.81 C 1805.72 334.77 1785.14 338.21 1765.01 336.93 C 1746.03 335.91 1727.03 330.55 1711.19 319.85 C 1697.29 310.55 1685.75 297.70 1678.33 282.70 C 1668.65 263.34 1665.20 241.47 1664.86 220.01 C 1664.56 198.69 1666.96 176.95 1675.18 157.11 C 1681.21 142.42 1690.81 129.15 1703.27 119.25 C 1718.67 106.68 1737.83 99.01 1757.54 96.76 M 1759.46 129.72 C 1739.06 133.61 1721.59 148.65 1713.53 167.62 C 1705.79 185.65 1704.45 205.69 1705.17 225.07 C 1706.03 243.39 1709.59 262.39 1720.25 277.71 C 1730.53 292.33 1746.94 302.78 1764.88 304.56 C 1783.35 306.94 1802.97 301.53 1816.57 288.54 C 1830.98 275.79 1837.72 256.69 1840.08 238.05 C 1842.45 217.88 1842.29 197.00 1836.50 177.39 C 1831.98 161.72 1822.08 147.61 1808.43 138.59 C 1794.24 128.97 1776.09 126.49 1759.46 129.72 Z" />
<path fill="#ffffffff" opacity="1.00" d=" M 1966.37 110.33 C 1980.98 101.46 1997.95 96.93 2014.95 96.05 C 2034.43 94.92 2054.51 97.98 2071.91 107.14 C 2089.46 116.35 2104.02 131.10 2113.16 148.68 C 2125.57 172.50 2128.41 200.04 2127.31 226.52 C 2069.83 226.57 2012.36 226.51 1954.88 226.55 C 1955.90 243.46 1959.50 260.75 1968.81 275.17 C 1978.27 289.78 1993.63 300.70 2010.87 303.78 C 2027.72 306.86 2046.30 304.62 2060.44 294.39 C 2072.96 285.50 2080.47 271.43 2085.63 257.32 C 2099.10 259.07 2112.55 260.94 2126.03 262.59 C 2121.28 282.35 2110.65 300.94 2095.10 314.17 C 2081.09 326.28 2063.23 333.31 2045.01 335.79 C 2027.61 338.12 2009.74 337.63 1992.65 333.54 C 1975.67 329.49 1959.69 321.03 1947.21 308.78 C 1935.14 297.20 1926.47 282.34 1921.47 266.43 C 1915.51 247.62 1914.09 227.65 1914.98 208.02 C 1915.92 188.81 1919.63 169.45 1928.18 152.09 C 1936.56 134.89 1950.01 120.23 1966.37 110.33 M 1979.80 143.78 C 1965.30 156.39 1958.11 175.57 1957.11 194.43 C 2000.09 194.41 2043.07 194.45 2086.05 194.41 C 2084.51 177.91 2080.64 160.44 2068.96 147.99 C 2058.87 136.55 2044.28 129.30 2029.06 128.22 C 2011.44 126.54 1992.94 131.66 1979.80 143.78 Z" />
<path fill="#ffffff" opacity="1.00" d=" M 2232.17 97.34 C 2250.95 94.59 2270.34 95.56 2288.76 100.20 C 2303.47 104.22 2318.29 110.79 2328.30 122.72 C 2337.09 133.58 2341.24 147.38 2343.54 160.96 C 2330.75 162.73 2317.97 164.56 2305.19 166.29 C 2303.83 156.87 2300.02 147.59 2293.15 140.85 C 2286.70 134.24 2277.81 130.57 2268.82 129.07 C 2259.13 127.47 2249.21 127.75 2239.49 128.82 C 2230.37 130.00 2220.82 132.40 2213.94 138.86 C 2208.48 143.64 2204.59 150.58 2204.79 157.97 C 2204.69 165.54 2209.04 172.59 2215.13 176.85 C 2220.92 181.16 2227.95 183.18 2234.79 185.16 C 2254.46 190.94 2274.40 195.74 2293.96 201.91 C 2305.36 205.68 2317.17 208.98 2327.36 215.54 C 2337.24 221.99 2345.34 231.50 2349.16 242.76 C 2354.72 259.70 2353.30 278.97 2344.75 294.68 C 2338.64 306.38 2329.06 316.11 2317.69 322.75 C 2299.75 333.33 2278.60 337.35 2257.95 337.17 C 2239.85 337.01 2221.36 334.81 2204.75 327.23 C 2193.40 322.12 2183.54 313.88 2176.31 303.76 C 2167.68 291.79 2162.74 277.53 2160.18 263.10 C 2173.11 261.07 2186.02 258.92 2198.96 256.90 C 2200.84 271.14 2207.21 285.41 2219.05 294.08 C 2230.17 302.32 2244.38 304.92 2257.96 305.03 C 2271.73 305.05 2286.57 303.51 2297.98 295.04 C 2304.97 289.65 2310.65 281.97 2311.93 273.07 C 2313.20 265.62 2311.43 257.44 2306.06 251.92 C 2300.98 246.30 2293.57 243.88 2286.62 241.51 C 2266.97 235.11 2246.66 231.07 2226.95 224.88 C 2213.09 220.43 2198.56 216.24 2187.18 206.74 C 2173.20 195.34 2165.79 176.88 2166.96 158.99 C 2167.70 140.39 2177.93 122.78 2192.98 112.03 C 2204.53 103.92 2218.40 99.74 2232.17 97.34 Z" />
</g>
</svg>
